<?xml version="1.0" encoding="UTF-8"?>
<svg width="143px" height="64px" viewBox="0 0 143 64" version="1.1" xmlns="http://www.w3.org/2000/svg" xmlns:xlink="http://www.w3.org/1999/xlink">
    <!-- Generator: Sketch 51.2 (57519) - http://www.bohemiancoding.com/sketch -->
    <title>add-friend</title>
    <desc>Created with Sketch.</desc>
    <defs>
        <linearGradient x1="50%" y1="0%" x2="50%" y2="98.72%" id="linearGradient-1">
            <stop stop-color="#D574FF" offset="0%"></stop>
            <stop stop-color="#85A8D9" offset="100%"></stop>
        </linearGradient>
    </defs>
    <g id="Page-1" stroke="none" stroke-width="1" fill="none" fill-rule="evenodd">
        <g id="add-friend" fill="url(#linearGradient-1)">
            <g id="Group" transform="translate(38.500000, 3.000000)">
                <path d="M56.39,36.041 C54.3323381,33.9816949 51.6172499,32.7097935 48.718,32.447 C51.213,30.214 52.787,26.989 52.787,23.387 C52.787,16.649 47.299,11.189 40.527,11.189 C34.057,11.189 28.762,16.175 28.302,22.494 C34.057,24.971 38.095,30.678 38.095,37.304 C38.095,39.724 37.542,42.088 36.513,44.234 C38.0034455,45.0076573 39.3657663,46.0063778 40.552,47.195 C43.6152839,50.2771245 45.3261484,54.4515618 45.307,58.797 L45.304,58.884 L45.301,58.959 L45.193,61 L59.878,61 L60,44.839 C60.0242166,41.5410756 58.7236512,38.3714428 56.39,36.041 Z" id="Shape"></path>
                <path d="M29.69,46.23 C32.2430553,43.8766085 33.6919241,40.5602442 33.684,37.088 C33.684,30.286 28.3,24.774 21.659,24.774 C15.017,24.774 9.635,30.286 9.635,37.088 C9.635,40.716 11.177,43.968 13.618,46.223 C7.366,46.719 2.428,52.021 2.383,58.549 L2.264,61 L40.636,61 L40.754,58.733 C40.783601,55.4240019 39.5123277,52.2357634 37.214,49.855 C35.2182207,47.7886746 32.5498292,46.5034206 29.69,46.231 L29.69,46.23 Z" id="Shape"></path>
                <path d="M7.881,15.696 L7.881,20.235 C7.91285977,22.0952534 9.4299738,23.5866069 11.2905,23.5866069 C13.1510262,23.5866069 14.6681402,22.0952534 14.7,20.235 L14.7,15.695 L19.234,15.695 C21.1157292,15.6938967 22.6408967,14.1687292 22.642,12.287 C22.6408967,10.4052708 21.1157292,8.88010333 19.234,8.879 L14.7,8.879 L14.7,4.406 C14.7,2.52326129 13.1737387,0.997 11.291,0.997 C9.40826129,0.997 7.882,2.52326129 7.882,4.406 L7.882,8.878 L3.408,8.878 C1.52581357,8.878 0,10.4038136 0,12.286 C0,14.1681864 1.52581357,15.694 3.408,15.694 L7.881,15.694 L7.881,15.696 Z" id="Shape"></path>
            </g>
            <circle id="Oval" cx="8.58" cy="53.08" r="2.08"></circle>
            <circle id="Oval" cx="108.58" cy="2.08" r="2.08"></circle>
            <circle id="Oval" cx="22.58" cy="30.08" r="2.08"></circle>
            <circle id="Oval" cx="140.58" cy="24.08" r="2.08"></circle>
            <circle id="Oval" cx="2.58" cy="9.08" r="2.08"></circle>
            <circle id="Oval" cx="118.58" cy="52.08" r="2.08"></circle>
        </g>
    </g>
</svg>