<?xml version="1.0" encoding="UTF-8"?>
<svg width="131px" height="66px" viewBox="0 0 131 66" version="1.1" xmlns="http://www.w3.org/2000/svg" xmlns:xlink="http://www.w3.org/1999/xlink">
    <!-- Generator: Sketch 51.2 (57519) - http://www.bohemiancoding.com/sketch -->
    <title>box</title>
    <desc>Created with Sketch.</desc>
    <defs>
        <linearGradient x1="50%" y1="0%" x2="50%" y2="98.72%" id="linearGradient-1">
            <stop stop-color="#D574FF" offset="0%"></stop>
            <stop stop-color="#85A8D9" offset="100%"></stop>
        </linearGradient>
    </defs>
    <g id="Page-1" stroke="none" stroke-width="1" fill="none" fill-rule="evenodd">
        <g id="box" fill="url(#linearGradient-1)">
            <g id="Group" transform="translate(34.000000, 5.000000)">
                <path d="M57.087,11.47 L52.719,11.47 C53.296,10.572 53.676,9.563 53.784,8.495 C54.13,5.085 52.309,2.028 49.207,0.673 C46.357,-0.573 43.153,-0.064 40.847,1.999 L35.331,6.927 C34.2136643,5.72153188 32.6436502,5.0374828 31,5.04 C29.283,5.04 27.737,5.77 26.663,6.931 L21.14,1.998 C18.83,-0.065 15.627,-0.572 12.778,0.673 C9.678,2.029 7.855,5.087 8.202,8.497 C8.311,9.563 8.691,10.572 9.267,11.47 L4.912,11.47 C2.751,11.47 0.999,13.198 0.999,15.328 L0.999,21.115 C0.999,22.181 1.875,23.045 2.956,23.045 L59.042,23.045 C60.122,23.045 60.999,22.181 60.999,21.115 L60.999,15.328 C60.999,13.198 59.247,11.47 57.086,11.47 L57.087,11.47 Z M25.13,10.827 L25.13,11.47 L15.926,11.47 C13.494,11.47 11.58,9.235 12.188,6.739 C12.455,5.639 13.26,4.702 14.301,4.228 C15.731,3.577 17.314,3.786 18.515,4.858 L25.132,10.771 L25.13,10.827 Z M49.902,7.983 C49.756,9.988 47.919,11.471 45.88,11.471 L36.87,11.471 L36.87,10.828 L36.868,10.76 L43.383,4.938 C44.385,4.042 45.788,3.624 47.084,4.005 C48.944,4.552 50.038,6.112 49.902,7.983 Z" id="Shape"></path>
                <path d="M5.09,28.467 L5.09,57.096 C5.09,59.252 6.815,61 8.941,61 L26.91,61 L26.91,28.467 L5.091,28.467 L5.09,28.467 Z" id="Shape"></path>
                <path d="M35.09,28.467 L35.09,61 L53.06,61 C55.186,61 56.91,59.252 56.91,57.096 L56.91,28.466 L35.091,28.466 L35.09,28.467 Z" id="Shape"></path>
            </g>
            <circle id="Oval" cx="15.08" cy="46.08" r="2.08"></circle>
            <circle id="Oval" cx="110.08" cy="3.08" r="2.08"></circle>
            <circle id="Oval" cx="2.08" cy="16.08" r="2.08"></circle>
            <circle id="Oval" cx="128.08" cy="23.08" r="2.08"></circle>
            <circle id="Oval" cx="29.08" cy="2.08" r="2.08"></circle>
            <circle id="Oval" cx="107.08" cy="42.08" r="2.08"></circle>
        </g>
    </g>
</svg>