<?xml version="1.0" encoding="UTF-8"?>
<svg width="130px" height="32px" viewBox="0 0 130 32" version="1.1" xmlns="http://www.w3.org/2000/svg" xmlns:xlink="http://www.w3.org/1999/xlink">
    <!-- Generator: Sketch 51.2 (57519) - http://www.bohemiancoding.com/sketch -->
    <title>logo</title>
    <desc>Created with Sketch.</desc>
    <defs>
        <linearGradient x1="0%" y1="0%" x2="100%" y2="100%" id="linearGradient-1">
            <stop stop-color="#D975FC" offset="0%"></stop>
            <stop stop-color="#A779FF" offset="51.8197466%"></stop>
            <stop stop-color="#A2CDFF" offset="100%"></stop>
        </linearGradient>
    </defs>
    <g id="Page-1" stroke="none" stroke-width="1" fill="none" fill-rule="evenodd">
        <g id="logo" transform="translate(1.000000, 0.000000)">
            <g id="Plyxa" transform="translate(45.000000, 0.000000)">
                <g id="path-2-link" fill="#000000" fill-rule="nonzero">
                    <path d="M6.398,12.576 L8.218,12.576 C10.2340101,12.576 11.242,11.6986754 11.242,9.944 C11.242,8.18932456 10.2340101,7.312 8.218,7.312 L6.398,7.312 L6.398,12.576 Z M6.398,24 L0.91,24 L0.91,2.888 L9.646,2.888 C12.0166785,2.888 13.8319937,3.50399384 15.092,4.736 C16.3520063,5.96800616 16.982,7.7039888 16.982,9.944 C16.982,12.1840112 16.3520063,13.9199938 15.092,15.152 C13.8319937,16.3840062 12.0166785,17 9.646,17 L6.398,17 L6.398,24 Z M24.486,0.76 L24.486,24 L19.418,24 L19.418,0.76 L24.486,0.76 Z M33.446,22.04 L26.502,9.636 L32.382,9.636 L36.218,17 L39.942,9.636 L45.766,9.636 L34.23,31.168 L28.546,31.168 L33.446,22.04 Z M52.934,16.216 L47.11,9.636 L53.718,9.636 L56.182,12.604 L58.702,9.636 L65.31,9.636 L59.346,16.216 L66.542,24 L59.822,24 L56.154,19.744 L52.458,24 L45.766,24 L52.934,16.216 Z M72.114,16.776 C72.114,17.242669 72.197999,17.6766647 72.366,18.078 C72.534001,18.4793353 72.762665,18.8293318 73.052,19.128 C73.341335,19.4266682 73.686665,19.6599992 74.088,19.828 C74.489335,19.9960008 74.923331,20.08 75.39,20.08 C75.838002,20.08 76.262665,19.9960008 76.664,19.828 C77.065335,19.6599992 77.410665,19.4266682 77.7,19.128 C77.989335,18.8293318 78.222666,18.484002 78.4,18.092 C78.577334,17.699998 78.666,17.2800022 78.666,16.832 C78.666,16.3839978 78.577334,15.9593353 78.4,15.558 C78.222666,15.1566647 77.989335,14.8066682 77.7,14.508 C77.410665,14.2093318 77.065335,13.9760008 76.664,13.808 C76.262665,13.6399992 75.838002,13.556 75.39,13.556 C74.923331,13.556 74.489335,13.6399992 74.088,13.808 C73.686665,13.9760008 73.341335,14.2093318 73.052,14.508 C72.762665,14.8066682 72.534001,15.1473314 72.366,15.53 C72.197999,15.9126686 72.114,16.3279978 72.114,16.776 Z M78.498,9.636 L83.594,9.636 L83.594,24 L78.498,24 L78.498,22.404 C77.415328,23.7666735 75.950009,24.448 74.102,24.448 C73.056661,24.448 72.095338,24.2566686 71.218,23.874 C70.340662,23.4913314 69.575337,22.9546701 68.922,22.264 C68.268663,21.5733299 67.760002,20.761338 67.396,19.828 C67.031998,18.894662 66.85,17.8773388 66.85,16.776 C66.85,15.7493282 67.027332,14.7740046 67.382,13.85 C67.736668,12.9259954 68.23133,12.1186701 68.866,11.428 C69.50067,10.7373299 70.256662,10.1913353 71.134,9.79 C72.011338,9.38866466 72.981995,9.188 74.046,9.188 C75.838009,9.188 77.321994,9.81332708 78.498,11.064 L78.498,9.636 Z" id="path-2"></path>
                </g>
                <g id="path-2-link" fill="url(#linearGradient-1)">
                    <path d="M6.398,12.576 L8.218,12.576 C10.2340101,12.576 11.242,11.6986754 11.242,9.944 C11.242,8.18932456 10.2340101,7.312 8.218,7.312 L6.398,7.312 L6.398,12.576 Z M6.398,24 L0.91,24 L0.91,2.888 L9.646,2.888 C12.0166785,2.888 13.8319937,3.50399384 15.092,4.736 C16.3520063,5.96800616 16.982,7.7039888 16.982,9.944 C16.982,12.1840112 16.3520063,13.9199938 15.092,15.152 C13.8319937,16.3840062 12.0166785,17 9.646,17 L6.398,17 L6.398,24 Z M24.486,0.76 L24.486,24 L19.418,24 L19.418,0.76 L24.486,0.76 Z M33.446,22.04 L26.502,9.636 L32.382,9.636 L36.218,17 L39.942,9.636 L45.766,9.636 L34.23,31.168 L28.546,31.168 L33.446,22.04 Z M52.934,16.216 L47.11,9.636 L53.718,9.636 L56.182,12.604 L58.702,9.636 L65.31,9.636 L59.346,16.216 L66.542,24 L59.822,24 L56.154,19.744 L52.458,24 L45.766,24 L52.934,16.216 Z M72.114,16.776 C72.114,17.242669 72.197999,17.6766647 72.366,18.078 C72.534001,18.4793353 72.762665,18.8293318 73.052,19.128 C73.341335,19.4266682 73.686665,19.6599992 74.088,19.828 C74.489335,19.9960008 74.923331,20.08 75.39,20.08 C75.838002,20.08 76.262665,19.9960008 76.664,19.828 C77.065335,19.6599992 77.410665,19.4266682 77.7,19.128 C77.989335,18.8293318 78.222666,18.484002 78.4,18.092 C78.577334,17.699998 78.666,17.2800022 78.666,16.832 C78.666,16.3839978 78.577334,15.9593353 78.4,15.558 C78.222666,15.1566647 77.989335,14.8066682 77.7,14.508 C77.410665,14.2093318 77.065335,13.9760008 76.664,13.808 C76.262665,13.6399992 75.838002,13.556 75.39,13.556 C74.923331,13.556 74.489335,13.6399992 74.088,13.808 C73.686665,13.9760008 73.341335,14.2093318 73.052,14.508 C72.762665,14.8066682 72.534001,15.1473314 72.366,15.53 C72.197999,15.9126686 72.114,16.3279978 72.114,16.776 Z M78.498,9.636 L83.594,9.636 L83.594,24 L78.498,24 L78.498,22.404 C77.415328,23.7666735 75.950009,24.448 74.102,24.448 C73.056661,24.448 72.095338,24.2566686 71.218,23.874 C70.340662,23.4913314 69.575337,22.9546701 68.922,22.264 C68.268663,21.5733299 67.760002,20.761338 67.396,19.828 C67.031998,18.894662 66.85,17.8773388 66.85,16.776 C66.85,15.7493282 67.027332,14.7740046 67.382,13.85 C67.736668,12.9259954 68.23133,12.1186701 68.866,11.428 C69.50067,10.7373299 70.256662,10.1913353 71.134,9.79 C72.011338,9.38866466 72.981995,9.188 74.046,9.188 C75.838009,9.188 77.321994,9.81332708 78.498,11.064 L78.498,9.636 Z" id="path-2"></path>
                </g>
            </g>
            <path d="M9,23.5 C9,22.672 8.328,22 7.5,22 L4.5,22 C3.672,22 3,22.672 3,23.5 L3,26.5 C3,27.328 3.672,28 4.5,28 L7.5,28 C8.328,28 9,27.328 9,26.5 L9,23.5 Z M12,22 L12,28 C12,29.6575 10.6575,31 9,31 L3,31 C1.3425,31 0,29.6575 0,28 L0,22 C0,20.3425 1.3425,19 3,19 L9,19 C10.6575,19 12,20.3425 12,22 Z M27,5.5 C27,4.672 26.328,4 25.5,4 L22.5,4 C21.672,4 21,4.672 21,5.5 L21,8.5 C21,9.328 21.672,10 22.5,10 L25.5,10 C26.328,10 27,9.328 27,8.5 L27,5.5 Z M30,4 L30,10 C30,11.6575 28.6575,13 27,13 L21,13 C19.3425,13 18,11.6575 18,10 L18,4 C18,2.3425 19.3425,1 21,1 L27,1 C28.6575,1 30,2.3425 30,4 Z" id="object_connection_round-[#1090]" stroke="#E15AD4" fill="#E15AD4" fill-rule="nonzero"></path>
            <path d="M24,16.015 C23.172,16.015 22.5,16.6855 22.5,17.515 L22.5,22.015 C22.5,22.843 21.828,23.5 21,23.5 L16.5,23.5 C15.672,23.5 15,24.172 15,25 C15,25.828 15.672,26.5 16.5,26.5 L22.5,26.5 C24.1575,26.5 25.5,25.171 25.5,23.515 L25.5,17.515 C25.5,16.6855 24.828,16.015 24,16.015 Z" id="Path" stroke="#86E8CB" fill="#86E8CB" fill-rule="nonzero"></path>
            <path d="M15,7 C15,7.828 14.328,8.5 13.5,8.5 L9,8.5 C8.172,8.5 7.5,9.1855 7.5,10.015 L7.5,14.515 C7.5,15.343 6.828,16.015 6,16.015 C5.172,16.015 4.5,15.343 4.5,14.515 L4.5,8.515 C4.5,6.8575 5.8425,5.5 7.5,5.5 L13.5,5.5 C14.328,5.5 15,6.172 15,7 Z" id="Path" stroke="#86E8CB" fill="#86E8CB" fill-rule="nonzero"></path>
        </g>
    </g>
</svg>