<?xml version="1.0" encoding="UTF-8"?>
<svg width="139px" height="61px" viewBox="0 0 139 61" version="1.1" xmlns="http://www.w3.org/2000/svg" xmlns:xlink="http://www.w3.org/1999/xlink">
    <!-- Generator: Sketch 51.2 (57519) - http://www.bohemiancoding.com/sketch -->
    <title>steam</title>
    <desc>Created with Sketch.</desc>
    <defs></defs>
    <g id="Page-1" stroke="none" stroke-width="1" fill="none" fill-rule="evenodd">
        <g id="steam" fill-rule="nonzero">
            <g id="Group" transform="translate(34.000000, 0.000000)">
                <g id="c-link" fill="#000000">
                    <path d="M47.039,15.36 C47.039,18.83 49.841,21.643 53.298,21.643 C56.755,21.643 59.557,18.83 59.557,15.36 C59.557,11.89 56.755,9.077 53.297,9.077 C49.841,9.077 47.039,11.89 47.039,15.36 Z M63.989,4.648 C61.227329,1.85306912 57.4616813,0.280066964 53.5325,0.280066964 C49.6033187,0.280066964 45.837671,1.85306912 43.076,4.648 C40.8112839,6.92816727 39.3449507,9.87977671 38.896,13.062 L25.383,33.716 C23.567,33.809 21.767,34.276 20.103,35.115 L9.681,26.898 C8.5244226,25.9849788 7.05052182,25.572864 5.58812163,25.7535975 C4.12572143,25.9343309 2.79649869,26.6928749 1.897,27.86 C0.01,30.293 0.437,33.808 2.85,35.71 L13.144,43.825 C12.024,48.271 13.189,53.181 16.639,56.66 C19.1300874,59.1807153 22.5265584,60.5993558 26.0705,60.5993558 C29.6144416,60.5993558 33.0109126,59.1807153 35.502,56.66 C38.702,53.434 39.935,48.976 39.204,44.799 L55.645,29.954 C58.8115411,29.4957782 61.7415915,28.0153021 63.989,25.738 C69.764,19.914 69.764,10.472 63.989,4.648 Z M25.757,55.573 C20.917,55.573 16.994,51.635 16.994,46.777 C16.994,46.73 16.997,46.684 16.998,46.637 L21.351,50.054 C22.491646,50.9502008 23.9426051,51.354498 25.3823445,51.1772993 C26.822084,51.0001006 28.1317067,50.2560395 29.021,49.11 C30.8792062,46.7217679 30.4591722,43.2810638 28.081,41.41 L23.951,38.168 C24.5448703,38.0429932 25.1501156,37.9799887 25.757,37.98 C30.597,37.98 34.52,41.918 34.52,46.777 C34.52,51.635 30.597,55.573 25.757,55.573 Z M53.924,25.413 C48.047,25.413 43.283,20.631 43.283,14.732 C43.283,8.832 48.047,4.05 53.923,4.05 C59.8,4.05 64.564,8.832 64.564,14.732 C64.564,20.631 59.8,25.413 53.924,25.413 Z" id="c"></path>
                </g>
                <g id="c-link" fill="#FFFFFF">
                    <path d="M47.039,15.36 C47.039,18.83 49.841,21.643 53.298,21.643 C56.755,21.643 59.557,18.83 59.557,15.36 C59.557,11.89 56.755,9.077 53.297,9.077 C49.841,9.077 47.039,11.89 47.039,15.36 Z M63.989,4.648 C61.227329,1.85306912 57.4616813,0.280066964 53.5325,0.280066964 C49.6033187,0.280066964 45.837671,1.85306912 43.076,4.648 C40.8112839,6.92816727 39.3449507,9.87977671 38.896,13.062 L25.383,33.716 C23.567,33.809 21.767,34.276 20.103,35.115 L9.681,26.898 C8.5244226,25.9849788 7.05052182,25.572864 5.58812163,25.7535975 C4.12572143,25.9343309 2.79649869,26.6928749 1.897,27.86 C0.01,30.293 0.437,33.808 2.85,35.71 L13.144,43.825 C12.024,48.271 13.189,53.181 16.639,56.66 C19.1300874,59.1807153 22.5265584,60.5993558 26.0705,60.5993558 C29.6144416,60.5993558 33.0109126,59.1807153 35.502,56.66 C38.702,53.434 39.935,48.976 39.204,44.799 L55.645,29.954 C58.8115411,29.4957782 61.7415915,28.0153021 63.989,25.738 C69.764,19.914 69.764,10.472 63.989,4.648 Z M25.757,55.573 C20.917,55.573 16.994,51.635 16.994,46.777 C16.994,46.73 16.997,46.684 16.998,46.637 L21.351,50.054 C22.491646,50.9502008 23.9426051,51.354498 25.3823445,51.1772993 C26.822084,51.0001006 28.1317067,50.2560395 29.021,49.11 C30.8792062,46.7217679 30.4591722,43.2810638 28.081,41.41 L23.951,38.168 C24.5448703,38.0429932 25.1501156,37.9799887 25.757,37.98 C30.597,37.98 34.52,41.918 34.52,46.777 C34.52,51.635 30.597,55.573 25.757,55.573 Z M53.924,25.413 C48.047,25.413 43.283,20.631 43.283,14.732 C43.283,8.832 48.047,4.05 53.923,4.05 C59.8,4.05 64.564,8.832 64.564,14.732 C64.564,20.631 59.8,25.413 53.924,25.413 Z" id="c"></path>
                </g>
            </g>
            <g id="Group" transform="translate(0.000000, 30.000000)">
                <g id="e-link" fill="#000000">
                    <circle id="e" cx="2.59" cy="2.933" r="2.08"></circle>
                </g>
                <g id="e-link" fill="#FFFFFF">
                    <circle id="e" cx="2.59" cy="2.933" r="2.08"></circle>
                </g>
            </g>
            <g id="Group" transform="translate(121.000000, 3.000000)">
                <g id="g-link" fill="#000000">
                    <circle id="g" cx="2.466" cy="2.176" r="2.08"></circle>
                </g>
                <g id="g-link" fill="#FFFFFF">
                    <circle id="g" cx="2.466" cy="2.176" r="2.08"></circle>
                </g>
            </g>
            <g id="Group" transform="translate(9.000000, 4.000000)">
                <g id="i-link" fill="#000000">
                    <circle id="i" cx="2.243" cy="2.321" r="2.08"></circle>
                </g>
                <g id="i-link" fill="#FFFFFF">
                    <circle id="i" cx="2.243" cy="2.321" r="2.08"></circle>
                </g>
            </g>
            <g id="Group" transform="translate(134.000000, 29.000000)">
                <g id="k-link" fill="#000000">
                    <circle id="k" cx="2.224" cy="2.435" r="2.08"></circle>
                </g>
                <g id="k-link" fill="#FFFFFF">
                    <circle id="k" cx="2.224" cy="2.435" r="2.08"></circle>
                </g>
            </g>
            <g id="Group" transform="translate(37.000000, 3.000000)">
                <g id="m-link" fill="#000000">
                    <circle id="m" cx="2.619" cy="2.549" r="2.08"></circle>
                </g>
                <g id="m-link" fill="#FFFFFF">
                    <circle id="m" cx="2.619" cy="2.549" r="2.08"></circle>
                </g>
            </g>
            <g id="Group" transform="translate(109.000000, 43.000000)">
                <g id="o-link" fill="#000000">
                    <circle id="o" cx="2.906" cy="2.475" r="2.08"></circle>
                </g>
                <g id="o-link" fill="#FFFFFF">
                    <circle id="o" cx="2.906" cy="2.475" r="2.08"></circle>
                </g>
            </g>
        </g>
    </g>
</svg>