<?xml version="1.0" encoding="UTF-8"?>
<svg width="54px" height="32px" viewBox="0 0 54 32" version="1.1" xmlns="http://www.w3.org/2000/svg" xmlns:xlink="http://www.w3.org/1999/xlink">
    <!-- Generator: Sketch 51.2 (57519) - http://www.bohemiancoding.com/sketch -->
    <title>Steam</title>
    <desc>Created with Sketch.</desc>
    <defs></defs>
    <g id="desktop" stroke="none" stroke-width="1" fill="none" fill-rule="evenodd">
        <g id="1" transform="translate(-1096.000000, -672.000000)" fill="#FFFFFF" fill-rule="nonzero">
            <g id="Group-33" transform="translate(430.000000, 183.000000)">
                <g id="Group-27">
                    <g id="Group-11" transform="translate(0.000000, 474.000000)">
                        <g id="Group-12">
                            <g id="Group-13">
                                <g id="Group-6">
                                    <g id="Group-20">
                                        <g id="Group-19" transform="translate(80.000000, 0.000000)">
                                            <g id="Group-25">
                                                <g id="Group-26">
                                                    <g id="Group-29">
                                                        <path d="M635.9596,23.9131852 C635.9596,26.6284444 633.7222,28.8305185 630.9628,28.8305185 C628.2004,28.8305185 625.9648,26.6284444 625.9648,23.9131852 C625.9648,21.1979259 628.2016,18.9964444 630.9628,18.9964444 C633.7222,18.9964444 635.9596,21.1979259 635.9596,23.9131852 Z M633.946,32.2213333 L627.8944,37.3140741 C627.9598,37.7205926 628.0042,38.1336296 628.0042,38.5573333 C628.0042,42.8927407 624.4318,46.408 620.0266,46.408 C616.2262,46.408 613.0528,43.7922963 612.2488,40.2924444 L597.2902,35.2986667 C596.1082,36.1816296 594.6388,36.7125926 593.0404,36.7125926 C589.1524,36.712 586,33.6091852 586,29.7834074 C586,25.9582222 589.1524,22.8571852 593.0404,22.8571852 C596.3836,22.8571852 599.176,25.1505185 599.8966,28.2231111 L614.3464,33.0474074 C615.754,31.6435556 617.695,30.7635556 619.846,30.7161481 L622.0102,24.2426667 C622.0036,24.1140741 621.9904,23.9872593 621.9904,23.8574815 C621.9904,18.9656296 626.0224,15 630.9952,15 C635.9674,15 640,18.9656296 640,23.8574815 C640,27.733037 637.4674,31.0183704 633.946,32.2213333 Z M597.4672,27.4124444 C596.626,25.9226667 595.0114,24.9134815 593.1568,24.9134815 C590.434,24.9134815 588.2266,27.0853333 588.2266,29.7638519 C588.2266,32.4423704 590.434,34.6136296 593.1568,34.6136296 C593.6602,34.6136296 594.145,34.5395556 594.6022,34.4014815 L592.2598,33.6198519 C590.3722,32.6254815 589.6618,30.3137778 590.6728,28.4565926 C591.6844,26.6005926 594.034,25.9025185 595.9198,26.8968889 L597.4672,27.4124444 Z M623.9728,23.8788148 C623.9728,27.6785185 627.1036,30.7588148 630.9658,30.7588148 C634.828,30.7588148 637.9606,27.6785185 637.9606,23.8788148 C637.9606,20.0773333 634.8274,16.997037 630.9658,16.997037 C627.1036,16.997037 623.9728,20.0773333 623.9728,23.8788148 Z M624.1108,39.2305185 C624.1108,36.3380741 621.727,33.992 618.787,33.992 C618.3742,33.992 617.9758,34.042963 617.5906,34.1294815 L620.566,35.1226667 C622.453,36.1182222 623.1616,38.4293333 622.1512,40.2847407 C621.1402,42.1437037 618.7906,42.84 616.9048,41.8462222 L613.6984,40.7754074 C614.368,42.9140741 616.393,44.4684444 618.787,44.4684444 C621.727,44.469037 624.1108,42.122963 624.1108,39.2305185 Z" id="Steam"></path>
                                                    </g>
                                                </g>
                                            </g>
                                        </g>
                                    </g>
                                </g>
                            </g>
                        </g>
                    </g>
                </g>
            </g>
        </g>
    </g>
</svg>