<svg width="143" height="64" viewBox="0 0 143 64" xmlns="http://www.w3.org/2000/svg">
    <title>
        add-friend
    </title>
    <defs>
        <linearGradient x1="50%" y1="0%" x2="50%" y2="98.72%" id="a">
            <stop stop-color="#D574FF" offset="0%"/>
            <stop stop-color="#85A8D9" offset="100%"/>
        </linearGradient>
    </defs>
    <g fill="url(#a)" fill-rule="evenodd">
        <path d="M94.89 39.041a12.432 12.432 0 0 0-7.672-3.594c2.495-2.233 4.069-5.458 4.069-9.06 0-6.738-5.488-12.198-12.26-12.198-6.47 0-11.765 4.986-12.225 11.305 5.755 2.477 9.793 8.184 9.793 14.81 0 2.42-.553 4.784-1.582 6.93a16.345 16.345 0 0 1 4.039 2.961 16.356 16.356 0 0 1 4.755 11.602l-.003.087-.003.075L83.693 64h14.685l.122-16.161a12.306 12.306 0 0 0-3.61-8.798z"/>
        <path d="M68.19 49.23a12.395 12.395 0 0 0 3.994-9.142c0-6.802-5.384-12.314-12.025-12.314-6.642 0-12.024 5.512-12.024 12.314 0 3.628 1.542 6.88 3.983 9.135-6.252.496-11.19 5.798-11.235 12.326L40.764 64h38.372l.118-2.267a12.62 12.62 0 0 0-3.54-8.878 12.049 12.049 0 0 0-7.524-3.624v-.001z"/>
        <path d="M46.381 18.696v4.539a3.41 3.41 0 0 0 6.819 0v-4.54h4.534a3.41 3.41 0 0 0 3.408-3.408 3.41 3.41 0 0 0-3.408-3.408H53.2V7.406a3.409 3.409 0 0 0-6.818 0v4.472h-4.474a3.408 3.408 0 0 0 0 6.816h4.473v.002z"/>
        <circle cx="8.58" cy="53.08" r="2.08"/>
        <circle cx="108.58" cy="2.08" r="2.08"/>
        <circle cx="22.58" cy="30.08" r="2.08"/>
        <circle cx="140.58" cy="24.08" r="2.08"/>
        <circle cx="2.58" cy="9.08" r="2.08"/>
        <circle cx="118.58" cy="52.08" r="2.08"/>
    </g>
</svg>
