<svg width="131" height="66" viewBox="0 0 131 66" xmlns="http://www.w3.org/2000/svg">
    <title>
        box
    </title>
    <defs>
        <linearGradient x1="50%" y1="0%" x2="50%" y2="98.72%" id="a">
            <stop stop-color="#D574FF" offset="0%"/>
            <stop stop-color="#85A8D9" offset="100%"/>
        </linearGradient>
    </defs>
    <g fill="url(#a)" fill-rule="evenodd">
        <path d="M91.087 16.47h-4.368a6.765 6.765 0 0 0 1.065-2.975c.346-3.41-1.475-6.467-4.577-7.822-2.85-1.246-6.054-.737-8.36 1.326l-5.516 4.928A5.893 5.893 0 0 0 65 10.04c-1.717 0-3.263.73-4.337 1.891L55.14 6.998c-2.31-2.063-5.513-2.57-8.362-1.325-3.1 1.356-4.923 4.414-4.576 7.824a6.791 6.791 0 0 0 1.065 2.973h-4.355c-2.161 0-3.913 1.728-3.913 3.858v5.787c0 1.066.876 1.93 1.957 1.93h56.086c1.08 0 1.957-.864 1.957-1.93v-5.787c0-2.13-1.752-3.858-3.913-3.858h.001zm-31.957-.643v.643h-9.204c-2.432 0-4.346-2.235-3.738-4.731.267-1.1 1.072-2.037 2.113-2.511 1.43-.651 3.013-.442 4.214.63l6.617 5.913-.002.056zm24.772-2.844c-.146 2.005-1.983 3.488-4.022 3.488h-9.01v-.643l-.002-.068 6.515-5.822c1.002-.896 2.405-1.314 3.701-.933 1.86.547 2.954 2.107 2.818 3.978z"/>
        <path d="M39.09 33.467v28.629c0 2.156 1.725 3.904 3.851 3.904H60.91V33.467H39.09z"/>
        <path d="M69.09 33.467V66h17.97c2.126 0 3.85-1.748 3.85-3.904v-28.63H69.091l-.001.001z"/>
        <circle cx="15.08" cy="46.08" r="2.08"/>
        <circle cx="110.08" cy="3.08" r="2.08"/>
        <circle cx="2.08" cy="16.08" r="2.08"/>
        <circle cx="128.08" cy="23.08" r="2.08"/>
        <circle cx="29.08" cy="2.08" r="2.08"/>
        <circle cx="107.08" cy="42.08" r="2.08"/>
    </g>
</svg>
