<svg width="130" height="32" viewBox="0 0 130 32" xmlns="http://www.w3.org/2000/svg">
    <title>
        logo
    </title>
    <defs>
        <linearGradient x1="0%" y1="0%" y2="100%" id="a">
            <stop stop-color="#D975FC" offset="0%"/>
            <stop stop-color="#A779FF" offset="51.82%"/>
            <stop stop-color="#A2CDFF" offset="100%"/>
        </linearGradient>
    </defs>
    <g fill="none" fill-rule="evenodd">
        <path d="M52.398 12.576h1.82c2.016 0 3.024-.877 3.024-2.632 0-1.755-1.008-2.632-3.024-2.632h-1.82v5.264zm0 11.424H46.91V2.888h8.736c2.37 0 4.186.616 5.446 1.848 1.26 1.232 1.89 2.968 1.89 5.208s-.63 3.976-1.89 5.208C59.832 16.384 58.017 17 55.646 17h-3.248v7zM70.486.76V24h-5.068V.76h5.068zm8.96 21.28L72.502 9.636h5.88L82.218 17l3.724-7.364h5.824L80.23 31.168h-5.684l4.9-9.128zm19.488-5.824l-5.824-6.58h6.608l2.464 2.968 2.52-2.968h6.608l-5.964 6.58L112.542 24h-6.72l-3.668-4.256L98.458 24h-6.692l7.168-7.784zm19.18.56a3.338 3.338 0 0 0 .938 2.352c.29.299.635.532 1.036.7.401.168.835.252 1.302.252.448 0 .873-.084 1.274-.252a3.08 3.08 0 0 0 1.036-.7 3.62 3.62 0 0 0 .7-1.036c.177-.392.266-.812.266-1.26 0-.448-.089-.873-.266-1.274a3.563 3.563 0 0 0-.7-1.05 3.08 3.08 0 0 0-1.036-.7 3.266 3.266 0 0 0-1.274-.252c-.467 0-.9.084-1.302.252a3.08 3.08 0 0 0-1.036.7 3.45 3.45 0 0 0-.686 1.022 3.065 3.065 0 0 0-.252 1.246zm6.384-7.14h5.096V24h-5.096v-1.596c-1.083 1.363-2.548 2.044-4.396 2.044-1.045 0-2.007-.191-2.884-.574a6.955 6.955 0 0 1-2.296-1.61 7.433 7.433 0 0 1-1.526-2.436c-.364-.933-.546-1.95-.546-3.052 0-1.027.177-2.002.532-2.926a7.523 7.523 0 0 1 1.484-2.422 6.997 6.997 0 0 1 2.268-1.638c.877-.401 1.848-.602 2.912-.602 1.792 0 3.276.625 4.452 1.876V9.636z" fill="#000" fill-rule="nonzero"/>
        <path d="M6.398 12.576h1.82c2.016 0 3.024-.877 3.024-2.632 0-1.755-1.008-2.632-3.024-2.632h-1.82v5.264zm0 11.424H.91V2.888h8.736c2.37 0 4.186.616 5.446 1.848 1.26 1.232 1.89 2.968 1.89 5.208s-.63 3.976-1.89 5.208C13.832 16.384 12.017 17 9.646 17H6.398v7zM24.486.76V24h-5.068V.76h5.068zm8.96 21.28L26.502 9.636h5.88L36.218 17l3.724-7.364h5.824L34.23 31.168h-5.684l4.9-9.128zm19.488-5.824l-5.824-6.58h6.608l2.464 2.968 2.52-2.968h6.608l-5.964 6.58L66.542 24h-6.72l-3.668-4.256L52.458 24h-6.692l7.168-7.784zm19.18.56a3.338 3.338 0 0 0 .938 2.352c.29.299.635.532 1.036.7.401.168.835.252 1.302.252.448 0 .873-.084 1.274-.252a3.08 3.08 0 0 0 1.036-.7 3.62 3.62 0 0 0 .7-1.036c.177-.392.266-.812.266-1.26 0-.448-.089-.873-.266-1.274a3.563 3.563 0 0 0-.7-1.05 3.08 3.08 0 0 0-1.036-.7 3.266 3.266 0 0 0-1.274-.252c-.467 0-.9.084-1.302.252a3.08 3.08 0 0 0-1.036.7 3.45 3.45 0 0 0-.686 1.022 3.065 3.065 0 0 0-.252 1.246zm6.384-7.14h5.096V24h-5.096v-1.596c-1.083 1.363-2.548 2.044-4.396 2.044-1.045 0-2.007-.191-2.884-.574a6.955 6.955 0 0 1-2.296-1.61 7.433 7.433 0 0 1-1.526-2.436c-.364-.933-.546-1.95-.546-3.052 0-1.027.177-2.002.532-2.926a7.523 7.523 0 0 1 1.484-2.422 6.997 6.997 0 0 1 2.268-1.638c.877-.401 1.848-.602 2.912-.602 1.792 0 3.276.625 4.452 1.876V9.636z" fill="url(#a)" transform="translate(46)"/>
        <path d="M10 23.5A1.5 1.5 0 0 0 8.5 22h-3A1.5 1.5 0 0 0 4 23.5v3A1.5 1.5 0 0 0 5.5 28h3a1.5 1.5 0 0 0 1.5-1.5v-3zm3-1.5v6a3 3 0 0 1-3 3H4a3 3 0 0 1-3-3v-6a3 3 0 0 1 3-3h6a3 3 0 0 1 3 3zM28 5.5A1.5 1.5 0 0 0 26.5 4h-3A1.5 1.5 0 0 0 22 5.5v3a1.5 1.5 0 0 0 1.5 1.5h3A1.5 1.5 0 0 0 28 8.5v-3zM31 4v6a3 3 0 0 1-3 3h-6a3 3 0 0 1-3-3V4a3 3 0 0 1 3-3h6a3 3 0 0 1 3 3z" stroke="#E15AD4" fill="#E15AD4" fill-rule="nonzero"/>
        <path d="M25 16.015a1.5 1.5 0 0 0-1.5 1.5v4.5c0 .828-.672 1.485-1.5 1.485h-4.5a1.5 1.5 0 0 0 0 3h6c1.657 0 3-1.329 3-2.985v-6a1.5 1.5 0 0 0-1.5-1.5z" stroke="#86E8CB" fill="#86E8CB" fill-rule="nonzero"/>
        <path d="M16 7a1.5 1.5 0 0 1-1.5 1.5H10c-.828 0-1.5.685-1.5 1.515v4.5a1.5 1.5 0 0 1-3 0v-6c0-1.658 1.343-3.015 3-3.015h6A1.5 1.5 0 0 1 16 7z" stroke="#86E8CB" fill="#86E8CB" fill-rule="nonzero"/>
    </g>
</svg>
