<?xml version="1.0" encoding="UTF-8"?><!DOCTYPE svg PUBLIC "-//W3C//DTD SVG 1.1//EN" "http://www.w3.org/Graphics/SVG/1.1/DTD/svg11.dtd"><svg xmlns="http://www.w3.org/2000/svg"><symbol id="icon-conversation" viewBox="0 0 30 30">
    <title>
        conversation
    </title>
    <g fill-rule="nonzero">
        <path d="M29.892 23.681L28.15 18.53a13.082 13.082 0 0 0 1.286-5.636 12.901 12.901 0 0 0-3.64-9.035C23.445 1.426 20.31.056 16.97.002c-3.464-.055-6.719 1.283-9.166 3.769-2.36 2.397-3.669 5.558-3.71 8.935A9.433 9.433 0 0 0 .4 20.22a9.545 9.545 0 0 0 .891 4.01l-1.2 3.548a1.682 1.682 0 0 0 .393 1.728 1.624 1.624 0 0 0 1.701.4l3.493-1.22a9.152 9.152 0 0 0 3.948.906h.015c2.96 0 5.71-1.43 7.455-3.851a12.55 12.55 0 0 0 5.236-1.302l5.07 1.77a1.93 1.93 0 0 0 2.022-.475 1.999 1.999 0 0 0 .468-2.054zM9.64 27.78H9.63a7.375 7.375 0 0 1-3.469-.875.88.88 0 0 0-.707-.056l-3.582 1.25 1.23-3.638a.92.92 0 0 0-.054-.719 7.684 7.684 0 0 1-.862-3.523 7.622 7.622 0 0 1 2.075-5.246 12.863 12.863 0 0 0 3.63 7.078c1.93 1.925 4.356 3.151 6.974 3.552A7.367 7.367 0 0 1 9.64 27.78zm18.522-3.327a.16.16 0 0 1-.179.042L22.554 22.6a.88.88 0 0 0-.707.056 10.77 10.77 0 0 1-5.065 1.278h-.017c-5.91 0-10.792-4.877-10.886-10.88-.047-3.023 1.085-5.864 3.188-8 2.102-2.135 4.9-3.285 7.874-3.237 5.915.095 10.719 5.064 10.71 11.075a11.222 11.222 0 0 1-1.258 5.146.92.92 0 0 0-.055.719l1.865 5.515c.023.069.01.13-.041.181z"/>
        <path d="M22.084 8.066H11.445a.9.9 0 0 0-.893.907.9.9 0 0 0 .893.907h10.639a.9.9 0 0 0 .892-.907.9.9 0 0 0-.892-.907z"/>
        <path d="M22.084 11.797H11.445a.9.9 0 0 0-.893.907c0 .5.4.907.893.907h10.639a.9.9 0 0 0 .892-.907.9.9 0 0 0-.892-.907z"/>
        <path d="M17.989 15.527h-6.544a.9.9 0 0 0-.893.907.9.9 0 0 0 .893.907h6.543a.9.9 0 0 0 .893-.907.9.9 0 0 0-.892-.907z"/>
    </g>
</symbol><symbol id="icon-load" viewBox="0 0 21 21">
    <title>
        Shape
    </title>
    <path d="M17.85 3.15C16.012 1.181 13.387 0 10.5 0 4.725 0 0 4.725 0 10.5S4.725 21 10.5 21c4.856 0 8.925-3.413 10.106-7.875H17.85c-1.05 3.019-3.938 5.25-7.35 5.25-4.331 0-7.875-3.544-7.875-7.875 0-4.331 3.544-7.875 7.875-7.875 2.231 0 4.069.919 5.512 2.362l-4.2 4.2H21V0l-3.15 3.15z" fill-rule="nonzero"/>
</symbol><symbol id="icon-question" viewBox="0 0 30 30">
    <title>
        question
    </title>
    <g fill-rule="nonzero">
        <path d="M29.882 27.167l-2.06-5.993a14.715 14.715 0 0 0 1.519-6.48 14.582 14.582 0 0 0-4.214-10.297A14.57 14.57 0 0 0 14.908.002 14.613 14.613 0 0 0 4.297 4.297 14.612 14.612 0 0 0 1.11 9.063a14.589 14.589 0 0 0-1.108 5.845 14.57 14.57 0 0 0 4.395 10.22A14.581 14.581 0 0 0 14.67 29.34h.024a14.716 14.716 0 0 0 6.48-1.518l5.993 2.06a2.122 2.122 0 0 0 2.205-.51 2.122 2.122 0 0 0 .51-2.206zm-1.767.948a.344.344 0 0 1-.37.085l-6.35-2.182a.89.89 0 0 0-.706.055 12.916 12.916 0 0 1-5.998 1.489c-7.005.011-12.8-5.678-12.91-12.682a12.793 12.793 0 0 1 3.774-9.325c2.49-2.49 5.8-3.83 9.325-3.775 7.004.112 12.693 5.903 12.682 12.91a12.917 12.917 0 0 1-1.49 6 .89.89 0 0 0-.054.704l2.182 6.351a.343.343 0 0 1-.085.37z"/>
        <path d="M14.526 21.255c-.465 0-.91.409-.89.89.022.48.391.888.89.888.465 0 .91-.409.89-.889-.022-.482-.391-.89-.89-.89z"/>
        <path d="M14.526 7.48a4.43 4.43 0 0 0-4.425 4.426.89.89 0 0 0 1.779 0 2.65 2.65 0 0 1 2.646-2.646 2.65 2.65 0 0 1 2.646 2.646 2.65 2.65 0 0 1-2.646 2.646.89.89 0 0 0-.89.889v3.627a.89.89 0 0 0 1.78 0V16.24a4.432 4.432 0 0 0 3.535-4.334 4.43 4.43 0 0 0-4.425-4.425z"/>
    </g>
</symbol></svg>