<svg width="139" height="61" viewBox="0 0 139 61" xmlns="http://www.w3.org/2000/svg">
    <title>
        steam
    </title>
    <g fill-rule="nonzero" fill="none">
        <path d="M81.039 15.36c0 3.47 2.802 6.283 6.259 6.283 3.457 0 6.259-2.813 6.259-6.283s-2.802-6.283-6.26-6.283c-3.456 0-6.258 2.813-6.258 6.283zm16.95-10.712a14.7 14.7 0 0 0-20.913 0 14.892 14.892 0 0 0-4.18 8.414L59.383 33.716c-1.816.093-3.616.56-5.28 1.399l-10.422-8.217a5.514 5.514 0 0 0-7.784.962c-1.887 2.433-1.46 5.948.953 7.85l10.294 8.115c-1.12 4.446.045 9.356 3.495 12.835a13.26 13.26 0 0 0 18.863 0c3.2-3.226 4.433-7.684 3.702-11.861l16.441-14.845a14.676 14.676 0 0 0 8.344-4.216c5.775-5.824 5.775-15.266 0-21.09zM59.757 55.573c-4.84 0-8.763-3.938-8.763-8.796 0-.047.003-.093.004-.14l4.353 3.417a5.448 5.448 0 0 0 7.67-.944 5.5 5.5 0 0 0-.94-7.7l-4.13-3.242a8.767 8.767 0 0 1 1.806-.188c4.84 0 8.763 3.938 8.763 8.797 0 4.858-3.923 8.796-8.763 8.796zm28.167-30.16c-5.877 0-10.641-4.782-10.641-10.681 0-5.9 4.764-10.682 10.64-10.682 5.877 0 10.641 4.782 10.641 10.682 0 5.899-4.764 10.681-10.64 10.681z" fill="#000"/>
        <path d="M81.039 15.36c0 3.47 2.802 6.283 6.259 6.283 3.457 0 6.259-2.813 6.259-6.283s-2.802-6.283-6.26-6.283c-3.456 0-6.258 2.813-6.258 6.283zm16.95-10.712a14.7 14.7 0 0 0-20.913 0 14.892 14.892 0 0 0-4.18 8.414L59.383 33.716c-1.816.093-3.616.56-5.28 1.399l-10.422-8.217a5.514 5.514 0 0 0-7.784.962c-1.887 2.433-1.46 5.948.953 7.85l10.294 8.115c-1.12 4.446.045 9.356 3.495 12.835a13.26 13.26 0 0 0 18.863 0c3.2-3.226 4.433-7.684 3.702-11.861l16.441-14.845a14.676 14.676 0 0 0 8.344-4.216c5.775-5.824 5.775-15.266 0-21.09zM59.757 55.573c-4.84 0-8.763-3.938-8.763-8.796 0-.047.003-.093.004-.14l4.353 3.417a5.448 5.448 0 0 0 7.67-.944 5.5 5.5 0 0 0-.94-7.7l-4.13-3.242a8.767 8.767 0 0 1 1.806-.188c4.84 0 8.763 3.938 8.763 8.797 0 4.858-3.923 8.796-8.763 8.796zm28.167-30.16c-5.877 0-10.641-4.782-10.641-10.681 0-5.9 4.764-10.682 10.64-10.682 5.877 0 10.641 4.782 10.641 10.682 0 5.899-4.764 10.681-10.64 10.681z" fill="#FFF"/>
        <circle cx="2.59" cy="2.933" r="2.08" fill="#000" transform="translate(0 30)"/>
        <circle cx="2.59" cy="2.933" r="2.08" fill="#FFF" transform="translate(0 30)"/>
        <circle cx="2.466" cy="2.176" r="2.08" fill="#000" transform="translate(121 3)"/>
        <circle cx="2.466" cy="2.176" r="2.08" fill="#FFF" transform="translate(121 3)"/>
        <circle cx="2.243" cy="2.321" r="2.08" fill="#000" transform="translate(9 4)"/>
        <circle cx="2.243" cy="2.321" r="2.08" fill="#FFF" transform="translate(9 4)"/>
        <g>
            <circle cx="2.224" cy="2.435" r="2.08" fill="#000" transform="translate(134 29)"/>
            <circle cx="2.224" cy="2.435" r="2.08" fill="#FFF" transform="translate(134 29)"/>
        </g>
        <g>
            <circle cx="2.619" cy="2.549" r="2.08" fill="#000" transform="translate(37 3)"/>
            <circle cx="2.619" cy="2.549" r="2.08" fill="#FFF" transform="translate(37 3)"/>
        </g>
        <g>
            <circle cx="2.906" cy="2.475" r="2.08" fill="#000" transform="translate(109 43)"/>
            <circle cx="2.906" cy="2.475" r="2.08" fill="#FFF" transform="translate(109 43)"/>
        </g>
    </g>
</svg>
