<svg width="54" height="32" viewBox="0 0 54 32" xmlns="http://www.w3.org/2000/svg">
    <title>
        Steam
    </title>
    <path d="M49.96 8.913c0 2.715-2.238 4.918-4.997 4.918-2.763 0-4.998-2.203-4.998-4.918 0-2.715 2.237-4.917 4.998-4.917 2.76 0 4.997 2.202 4.997 4.917zm-2.014 8.308l-6.052 5.093c.066.407.11.82.11 1.243 0 4.336-3.572 7.851-7.977 7.851-3.8 0-6.974-2.616-7.778-6.116L11.29 20.3a7.078 7.078 0 0 1-4.25 1.414C3.152 21.712 0 18.609 0 14.783c0-3.825 3.152-6.926 7.04-6.926 3.344 0 6.136 2.294 6.857 5.366l14.45 4.824a8.014 8.014 0 0 1 5.499-2.33l2.164-6.474c-.006-.129-.02-.256-.02-.386C35.99 3.966 40.022 0 44.995 0 49.967 0 54 3.966 54 8.857c0 3.876-2.533 7.161-6.054 8.364zm-36.479-4.809a4.94 4.94 0 0 0-4.31-2.499c-2.723 0-4.93 2.172-4.93 4.85 0 2.68 2.207 4.85 4.93 4.85a4.99 4.99 0 0 0 1.445-.212L6.26 18.62c-1.888-.995-2.598-3.306-1.587-5.163 1.011-1.856 3.361-2.554 5.247-1.56l1.547.515zM37.973 8.88c0 3.8 3.13 6.88 6.993 6.88 3.862 0 6.995-3.08 6.995-6.88 0-3.802-3.134-6.882-6.995-6.882-3.862 0-6.993 3.08-6.993 6.882zm.138 15.352c0-2.893-2.384-5.239-5.324-5.239-.413 0-.811.051-1.196.137l2.975.994c1.887.995 2.596 3.306 1.585 5.162-1.01 1.859-3.36 2.555-5.246 1.561l-3.207-1.07c.67 2.138 2.695 3.692 5.089 3.692 2.94.001 5.324-2.345 5.324-5.237z" fill="#FFF" fill-rule="nonzero"/>
</svg>
